<svg xmlns="http://www.w3.org/2000/svg" viewBox="0 0 25 25"><defs><style>.cls-1{fill:#1ea849;}</style></defs><title>Asset 2</title><g id="Layer_2" data-name="Layer 2"><g id="Layer_1-2" data-name="Layer 1"><path class="cls-1" d="M21,25a6,6,0,0,1-3.68-1.27A11.62,11.62,0,0,1,12,25,12.28,12.28,0,0,1,0,12.5,12.28,12.28,0,0,1,12,0,12.28,12.28,0,0,1,24,12.5a12.8,12.8,0,0,1-1.69,6.4,4.24,4.24,0,0,0,1.91,2.54A1.5,1.5,0,0,1,24.34,24,6,6,0,0,1,21,25ZM12,3a9.28,9.28,0,0,0-9,9.5A9.28,9.28,0,0,0,12,22a8.65,8.65,0,0,0,4.7-1.39,1.5,1.5,0,0,1,2,.29A3,3,0,0,0,20.52,22a7.44,7.44,0,0,1-1.24-3.1,1.5,1.5,0,0,1,.22-1A9.78,9.78,0,0,0,21,12.5,9.28,9.28,0,0,0,12,3Z"/></g></g></svg>