<svg xmlns="http://www.w3.org/2000/svg" viewBox="0 0 54.5 54.5"><defs><style>.cls-1{fill:#1ea849;}</style></defs><title>Asset 5</title><g id="Layer_2" data-name="Layer 2"><g id="Layer_1-2" data-name="Layer 1"><path class="cls-1" d="M49.25,13.25h-7v-8h8.59L49.54,6.54A1,1,0,1,0,51,8l3-3a1,1,0,0,0,0-1.42l-3-3A1,1,0,1,0,49.54,2l1.29,1.29H2.25v-2a1,1,0,0,0-2,0v6a1,1,0,0,0,2,0v-2h12v12a1,1,0,0,0,2,0v-2h21a1,1,0,0,0,0-2h-21v-8h24v12a1,1,0,0,0,2,0v-2h7a3,3,0,0,1,3,3v31a3,3,0,0,1-3,3h-42a3,3,0,0,1-3-3v-31a3,3,0,0,1,3-3h4a1,1,0,0,0,0-2h-4a5,5,0,0,0-5,5v31a5,5,0,0,0,5,5h42a5,5,0,0,0,5-5v-31A5,5,0,0,0,49.25,13.25Z"/><path class="cls-1" d="M49.25,54.5h-42A5.26,5.26,0,0,1,2,49.25v-31A5.26,5.26,0,0,1,7.25,13h4a1.25,1.25,0,0,1,0,2.5h-4A2.75,2.75,0,0,0,4.5,18.25v31A2.75,2.75,0,0,0,7.25,52h42A2.75,2.75,0,0,0,52,49.25v-31a2.75,2.75,0,0,0-2.75-2.75H42.5v1.75a1.25,1.25,0,0,1-2.5,0V5.5H16.5V13H37.25a1.25,1.25,0,0,1,0,2.5H16.5v1.75a1.25,1.25,0,0,1-2.5,0V5.5H2.5V7.25a1.25,1.25,0,0,1-2.5,0v-6a1.25,1.25,0,0,1,2.5,0V3H50.23l-.87-.87A1.25,1.25,0,1,1,51.13.37l3,3a1.23,1.23,0,0,1,.27.41,1.26,1.26,0,0,1,0,1,1.23,1.23,0,0,1-.27.41l-3,3a1.28,1.28,0,0,1-1.77,0,1.25,1.25,0,0,1,0-1.77l.87-.87H42.5V13h6.75a5.26,5.26,0,0,1,5.25,5.25v31A5.26,5.26,0,0,1,49.25,54.5Zm-42-41A4.76,4.76,0,0,0,2.5,18.25v31A4.76,4.76,0,0,0,7.25,54h42A4.76,4.76,0,0,0,54,49.25v-31a4.76,4.76,0,0,0-4.75-4.75H42V5h9.44L49.72,6.72a.75.75,0,0,0,0,1.06.77.77,0,0,0,1.06,0l3-3a.74.74,0,0,0,.16-.24.76.76,0,0,0,0-.57.74.74,0,0,0-.16-.24l-3-3a.75.75,0,0,0-1.06,1.06L51.44,3.5H2V1.25a.75.75,0,0,0-1.5,0v6a.75.75,0,0,0,1.5,0V5H14.5V17.25a.75.75,0,0,0,1.5,0V15H37.25a.75.75,0,0,0,0-1.5H16V5H40.5V17.25a.75.75,0,0,0,1.5,0V15h7.25a3.25,3.25,0,0,1,3.25,3.25v31a3.25,3.25,0,0,1-3.25,3.25h-42A3.25,3.25,0,0,1,4,49.25v-31A3.25,3.25,0,0,1,7.25,15h4a.75.75,0,0,0,0-1.5Z"/><path class="cls-1" d="M15.25,27.25a1,1,0,0,0-1,1v3h-3v-3a1,1,0,0,0-2,0v8a1,1,0,0,0,2,0v-3h3v3a1,1,0,0,0,2,0v-8A1,1,0,0,0,15.25,27.25Z"/><path class="cls-1" d="M15.25,37.5A1.25,1.25,0,0,1,14,36.25V33.5H11.5v2.75a1.25,1.25,0,0,1-2.5,0v-8a1.25,1.25,0,0,1,2.5,0V31H14V28.25a1.25,1.25,0,0,1,2.5,0v8A1.25,1.25,0,0,1,15.25,37.5ZM11,33h3.5v3.25a.75.75,0,0,0,1.5,0v-8a.75.75,0,0,0-1.5,0V31.5H11V28.25a.75.75,0,0,0-1.5,0v8a.75.75,0,0,0,1.5,0Z"/><path class="cls-1" d="M39.25,29.25a1,1,0,0,0,0-2h-3a1,1,0,0,0-1,1v8a1,1,0,0,0,1,1h3a1,1,0,0,0,0-2h-2v-2h2a1,1,0,0,0,0-2h-2v-2Z"/><path class="cls-1" d="M39.25,37.5h-3A1.25,1.25,0,0,1,35,36.25v-8A1.25,1.25,0,0,1,36.25,27h3a1.25,1.25,0,0,1,0,2.5H37.5V31h1.75a1.25,1.25,0,0,1,0,2.5H37.5V35h1.75a1.25,1.25,0,0,1,0,2.5Zm-3-10a.75.75,0,0,0-.75.75v8a.75.75,0,0,0,.75.75h3a.75.75,0,0,0,0-1.5H37V33h2.25a.75.75,0,0,0,0-1.5H37V29h2.25a.75.75,0,0,0,0-1.5Z"/><path class="cls-1" d="M44.25,27.25a1,1,0,0,0-1,1v8a1,1,0,0,0,1,1h3a1,1,0,0,0,0-2h-2v-7A1,1,0,0,0,44.25,27.25Z"/><path class="cls-1" d="M47.25,37.5h-3A1.25,1.25,0,0,1,43,36.25v-8a1.25,1.25,0,0,1,2.5,0V35h1.75a1.25,1.25,0,0,1,0,2.5Zm-3-10a.75.75,0,0,0-.75.75v8a.75.75,0,0,0,.75.75h3a.75.75,0,0,0,0-1.5H45V28.25A.75.75,0,0,0,44.25,27.5Z"/><path class="cls-1" d="M32.25,27.25h-4a1,1,0,0,0,0,2h1v7a1,1,0,0,0,2,0v-7h1a1,1,0,0,0,0-2Z"/><path class="cls-1" d="M30.25,37.5A1.25,1.25,0,0,1,29,36.25V29.5h-.75a1.25,1.25,0,0,1,0-2.5h4a1.25,1.25,0,0,1,0,2.5H31.5v6.75A1.25,1.25,0,0,1,30.25,37.5Zm-2-10a.75.75,0,0,0,0,1.5H29.5v7.25a.75.75,0,0,0,1.5,0V29h1.25a.75.75,0,0,0,0-1.5Z"/><path class="cls-1" d="M26.25,32.25c0-3.44-2.07-5-4-5s-4,1.56-4,5c0,3.28,2,5,4,5S26.25,35.53,26.25,32.25Zm-6,0c0-1.82.79-3,2-3s2,1.18,2,3-.82,3-2,3S20.25,34,20.25,32.25Z"/><path class="cls-1" d="M22.25,37.5c-2.11,0-4.25-1.8-4.25-5.25C18,28.64,20.2,27,22.25,27s4.25,1.64,4.25,5.25C26.5,35.7,24.36,37.5,22.25,37.5Zm0-10c-1.81,0-3.75,1.49-3.75,4.75S20.39,37,22.25,37,26,35.37,26,32.25,24.06,27.5,22.25,27.5Zm0,8c-1.32,0-2.25-1.34-2.25-3.25S20.88,29,22.25,29s2.25,1.28,2.25,3.25S23.57,35.5,22.25,35.5Zm0-6c-1.06,0-1.75,1.08-1.75,2.75S21.22,35,22.25,35,24,33.87,24,32.25,23.31,29.5,22.25,29.5Z"/><path class="cls-1" d="M9.25,43.25a1,1,0,0,0,1,1h14a1,1,0,0,0,0-2h-14A1,1,0,0,0,9.25,43.25Z"/><path class="cls-1" d="M24.25,44.5h-14a1.25,1.25,0,0,1,0-2.5h14a1.25,1.25,0,0,1,0,2.5Zm-14-2a.75.75,0,0,0,0,1.5h14a.75.75,0,0,0,0-1.5Z"/><path class="cls-1" d="M28.25,44.25h1a1,1,0,0,0,0-2h-1a1,1,0,0,0,0,2Z"/><path class="cls-1" d="M29.25,44.5h-1a1.25,1.25,0,0,1,0-2.5h1a1.25,1.25,0,0,1,0,2.5Zm-1-2a.75.75,0,0,0,0,1.5h1a.75.75,0,0,0,0-1.5Z"/><path class="cls-1" d="M32.25,43.25a1,1,0,0,0,1,1h14a1,1,0,0,0,0-2h-14A1,1,0,0,0,32.25,43.25Z"/><path class="cls-1" d="M47.25,44.5h-14a1.25,1.25,0,0,1,0-2.5h14a1.25,1.25,0,0,1,0,2.5Zm-14-2a.75.75,0,0,0,0,1.5h14a.75.75,0,0,0,0-1.5Z"/></g></g></svg>