<svg xmlns="http://www.w3.org/2000/svg" viewBox="0 0 37 25"><defs><style>.cls-1{fill:#1ea849;}</style></defs><title>Asset 4</title><g id="Layer_2" data-name="Layer 2"><g id="Layer_1-2" data-name="Layer 1"><path class="cls-1" d="M18.5,25C8.75,25,0,15.38,0,12.5S8.75,0,18.5,0,37,9.62,37,12.5,28.25,25,18.5,25ZM3,12.5C3.75,14.32,10.38,22,18.5,22S33.25,14.32,34,12.5C33.25,10.68,26.62,3,18.5,3S3.75,10.68,3,12.5Zm31,.14Zm-31,0Zm31-.28Zm-31,0Z"/><path class="cls-1" d="M18.5,20A7.5,7.5,0,1,1,26,12.5,7.51,7.51,0,0,1,18.5,20Zm0-12A4.5,4.5,0,1,0,23,12.5,4.5,4.5,0,0,0,18.5,8Z"/></g></g></svg>