<svg xmlns="http://www.w3.org/2000/svg" viewBox="0 0 20.33 35.75"><defs><style>.cls-1{fill:#eef0f4;}</style></defs><title>Asset 8</title><g id="Layer_2" data-name="Layer 2"><g id="Layer_1-2" data-name="Layer 1"><path class="cls-1" d="M8.77,25.69c0,2.9-.15,6,.11,8.8.2,2.11,2.58,1.41,2.68-1,.13-3.14-.19-6.18-.33-9.2C11.13,21.92,8.76,23.35,8.77,25.69Z"/><path class="cls-1" d="M10.17,31.67A10.18,10.18,0,0,1,0,21.5V10.17a10.17,10.17,0,0,1,20.33,0V21.5A10.18,10.18,0,0,1,10.17,31.67ZM10.17,2A8.18,8.18,0,0,0,2,10.17V21.5a8.17,8.17,0,0,0,16.33,0V10.17A8.18,8.18,0,0,0,10.17,2Z"/></g></g></svg>