<svg xmlns="http://www.w3.org/2000/svg" viewBox="0 0 116.42 116.42"><defs><style>.cls-1{fill:#fff;}</style></defs><title>Asset 1</title><g id="Layer_2" data-name="Layer 2"><g id="Layer_1-2" data-name="Layer 1"><path class="cls-1" d="M75.14,43.84a1.75,1.75,0,0,1-1.74-1.6,28.8,28.8,0,0,0-53.52-12.1,1.75,1.75,0,1,1-3-1.77,32.29,32.29,0,0,1,60,13.57,1.75,1.75,0,0,1-1.59,1.9Z"/><path class="cls-1" d="M105.82,116.42a10.54,10.54,0,0,1-7.5-3.11L67.92,82.93a44.48,44.48,0,0,1-25.41,6.45A45.15,45.15,0,0,1,.09,47.57,44.72,44.72,0,0,1,47.57.09a45.15,45.15,0,0,1,41.8,42.43,44.45,44.45,0,0,1-6.45,25.41l30.39,30.39h0a10.61,10.61,0,0,1-7.5,18.11Zm-37.41-38,32.38,32.38a7.11,7.11,0,1,0,10.05-10.05h0L78.46,68.41l.78-1.19a41,41,0,0,0,6.64-24.53A41.21,41.21,0,0,0,15.57,15.57,41.21,41.21,0,0,0,67.22,79.24Z"/><path class="cls-1" d="M75.26,76.11a1.75,1.75,0,0,1-1.25-3,71.33,71.33,0,0,0,5.3-6,1.75,1.75,0,0,1,2.79,2.11,73.44,73.44,0,0,1-5.59,6.35A1.75,1.75,0,0,1,75.26,76.11Z"/></g></g></svg>