<svg xmlns="http://www.w3.org/2000/svg" viewBox="0 0 54.21 50.89"><defs><style>.cls-1{fill:#1ea849;}</style></defs><title>Asset 7</title><g id="Layer_2" data-name="Layer 2"><g id="Layer_1-2" data-name="Layer 1"><path class="cls-1" d="M3.63,22.8l15,4.54a1,1,0,0,0,.58-1.91L4.64,21l1.09-1.43a1.57,1.57,0,0,1,.88-.47l20.1-1.35a1,1,0,0,0-.13-2L6.47,17.11a3.48,3.48,0,0,0-2.33,1.25L2.78,20.15a1.64,1.64,0,0,0,.86,2.65Z"/><path class="cls-1" d="M19,27.76a1.38,1.38,0,0,1-.4-.06l-15-4.54a2,2,0,0,1-1-3.23l1.36-1.78a3.83,3.83,0,0,1,2.61-1.4l20.09-1.35a1.33,1.33,0,0,1,1,.33,1.38,1.38,0,0,1-.81,2.41L6.63,19.48a1.27,1.27,0,0,0-.6.32l-.77,1,14.11,4.26a1.38,1.38,0,0,1-.4,2.69ZM3.74,22.44l15,4.54a.64.64,0,0,0,.78-.42.63.63,0,0,0-.42-.78L4,21.21l1.42-1.86a1.92,1.92,0,0,1,1.15-.62l20.1-1.35a.62.62,0,1,0-.08-1.25L6.5,17.48a3.12,3.12,0,0,0-2.06,1.11L3.08,20.38a1.27,1.27,0,0,0,.67,2.06Z"/><path class="cls-1" d="M53.54,40.68,42.91,21.27l8.17-11C53.68,6.83,54.33,3,52.62,1.34a3.14,3.14,0,0,0-.69-.53,3.87,3.87,0,0,0-2-.43c-3,0-8.94,1.72-10.92,4.31L20.82,28.81c-.53.69-3.88,5.26-6.47,9.36l-10,1.34a3.74,3.74,0,0,0-2.26,1.31L.76,42.62a1.67,1.67,0,0,0,.81,2.67l7.55,2.58a1.45,1.45,0,0,0,.1,1.34,3.52,3.52,0,0,0,3,1.31,5.16,5.16,0,0,0,.65,0c6.27-.84,14.42-8.77,15.61-10.33l3.27-4.29a2.52,2.52,0,0,1,2-.92,2.73,2.73,0,0,1,.57.06L49.18,45.64a2.1,2.1,0,0,0,2.8-.42l1.36-1.78A2.68,2.68,0,0,0,53.54,40.68Zm-1.8,1.55L50.34,44l-15-10.74-.27-.14a4.43,4.43,0,0,0-4.82,1.47l-3.31,4.34c-1,1.26-8.63,8.8-14.28,9.56a3.4,3.4,0,0,1-.39,0,2.51,2.51,0,0,1-1.14-.22c.06-.1.14-.24.26-.41l.75-1.09L2.58,43.52,3.71,42a1.83,1.83,0,0,1,.94-.54L15.55,40l.25-.4c2.57-4.14,6.08-8.9,6.62-9.61L40.56,5.89C41.92,4.11,47,2.38,49.89,2.38a2.18,2.18,0,0,1,1,.13l.12.07a1.43,1.43,0,0,1,.22.18c.72.7.41,3.48-1.72,6.26L40.55,21.11,51.79,41.64A.72.72,0,0,1,51.75,42.23Z"/><path class="cls-1" d="M12.26,50.89a3.88,3.88,0,0,1-3.36-1.47,1.68,1.68,0,0,1-.25-1.31L1.45,45.64a2,2,0,0,1-1-3.25l1.36-1.78a4.09,4.09,0,0,1,2.51-1.46l9.8-1.32c2.58-4.07,5.89-8.58,6.4-9.24L38.67,4.46C40.74,1.74,46.7,0,49.89,0a4.21,4.21,0,0,1,2.24.49,3.44,3.44,0,0,1,.76.59c1.85,1.8,1.21,5.83-1.5,9.37l-8,10.85L53.87,40.5a3,3,0,0,1-.24,3.17l-1.36,1.78a2.49,2.49,0,0,1-3.31.5L34.17,35.36a2.45,2.45,0,0,0-.42,0,2.16,2.16,0,0,0-1.68.79l-3.25,4.27C27.62,42,19.35,50,13,50.85h0A5.47,5.47,0,0,1,12.26,50.89ZM49.89.75c-3,0-8.71,1.66-10.62,4.16L21.12,29c-.51.67-3.88,5.25-6.45,9.34l-.09.15L4.43,39.89a3.38,3.38,0,0,0-2,1.17L1.06,42.85a1.3,1.3,0,0,0,.63,2.09l7.9,2.71L9.47,48a1.07,1.07,0,0,0,.06,1,3.16,3.16,0,0,0,2.74,1.14,4.77,4.77,0,0,0,.6,0c6.16-.83,14.19-8.65,15.36-10.18l3.27-4.29a2.89,2.89,0,0,1,2.26-1.06,3.11,3.11,0,0,1,.65.07l.14.06L49.4,45.34A1.74,1.74,0,0,0,51.68,45L53,43.21a2.32,2.32,0,0,0,.18-2.35L42.47,21.24,50.79,10c2.44-3.2,3.13-6.88,1.57-8.39a2.8,2.8,0,0,0-.61-.47A3.53,3.53,0,0,0,49.89.75ZM12.26,48.89a2.87,2.87,0,0,1-1.32-.27l-.34-.18.19-.33c.06-.11.15-.26.28-.44l.47-.68L2,43.71l1.44-1.89a2.2,2.2,0,0,1,1.18-.69l10.73-1.44.16-.25c2.59-4.16,6.1-8.94,6.64-9.64L40.26,5.66C41.7,3.78,46.9,2,49.89,2a2.3,2.3,0,0,1,1.19.2l.1.05a1.76,1.76,0,0,1,.3.24c.94.91.48,3.91-1.69,6.76L41,21.14,52.12,41.46a1.08,1.08,0,0,1-.08,1h0l-1.62,2.07L34.9,33.47a4.08,4.08,0,0,0-4.37,1.38l-3.29,4.32c-1,1.28-8.77,8.93-14.53,9.7A3.7,3.7,0,0,1,12.26,48.89Zm-.57-.8a4.65,4.65,0,0,0,.91,0c5.53-.74,13.08-8.17,14-9.41l3.31-4.34a4.82,4.82,0,0,1,5.24-1.59l.33.16L50.27,43.5,51.44,42a.48.48,0,0,0,0-.21L40.1,21.08,49.19,8.8c2-2.67,2.29-5.25,1.76-5.77L50.8,2.9l-.11-.07h0a2.47,2.47,0,0,0-.8-.08c-2.7,0-7.75,1.7-9,3.37L22.71,30.25c-.54.7-4,5.45-6.6,9.59l-.34.55L4.69,41.88a1.51,1.51,0,0,0-.69.4L3.2,43.34l9.53,3.26Z"/><path class="cls-1" d="M43.92,9.18a1.36,1.36,0,0,0,.74.21,1.52,1.52,0,0,0,.34,0c1.28-.29,2.9-2.64,3.75-4A1,1,0,0,0,47,4.29a13.52,13.52,0,0,1-2.42,3.06,1,1,0,0,0-.7,1.83Z"/><path class="cls-1" d="M44.66,9.76a1.74,1.74,0,0,1-.94-.27,1.37,1.37,0,0,1-.42-1.9A1.4,1.4,0,0,1,44.52,7a14.93,14.93,0,0,0,2.21-2.87,1.38,1.38,0,0,1,2.34,1.45c-1.08,1.74-2.64,3.87-4,4.18A1.9,1.9,0,0,1,44.66,9.76Zm-.2-2.05a.62.62,0,0,0-.34,1.15h0a1,1,0,0,0,.79.12c.84-.19,2.12-1.59,3.52-3.84a.62.62,0,0,0-1.06-.66,13.44,13.44,0,0,1-2.53,3.18l-.12.08-.15,0Z"/></g></g></svg>