<svg xmlns="http://www.w3.org/2000/svg" viewBox="0 0 54.75 54.75"><defs><style>.cls-1{fill:#1ea849;}</style></defs><title>Asset 6</title><g id="Layer_2" data-name="Layer 2"><g id="Layer_1-2" data-name="Layer 1"><path class="cls-1" d="M53.38,50.38a6.37,6.37,0,0,0-3.78,1.15,4.8,4.8,0,0,1-5.46,0,6.47,6.47,0,0,0-2.9-1.09c3.32-5.07,9.15-16,10.11-20.86a1,1,0,0,0-.31-.94,38,38,0,0,0-6.77-4.84,1,1,0,0,0,.1-.42v-6a3,3,0,0,0-3-3h-1v-4a3,3,0,0,0-3-3h-20a3,3,0,0,0-3,3v4h-1a3,3,0,0,0-3,3v6a1,1,0,0,0,.1.42,38,38,0,0,0-6.77,4.84,1,1,0,0,0-.31.94c1,4.82,6.79,15.79,10.11,20.86a6.46,6.46,0,0,0-2.91,1.1,4.43,4.43,0,0,1-2.72.85,4.43,4.43,0,0,1-2.72-.85,6.36,6.36,0,0,0-3.77-1.15,1,1,0,0,0,0,2,4.42,4.42,0,0,1,2.72.85,6.36,6.36,0,0,0,3.77,1.15,6.36,6.36,0,0,0,3.77-1.15,4.43,4.43,0,0,1,2.72-.85,4.43,4.43,0,0,1,2.72.85,6.36,6.36,0,0,0,3.77,1.15,6.36,6.36,0,0,0,3.77-1.15,4.78,4.78,0,0,1,5.45,0,6.77,6.77,0,0,0,7.55,0,4.79,4.79,0,0,1,5.46,0,6.79,6.79,0,0,0,7.55,0,4.44,4.44,0,0,1,2.73-.85,1,1,0,0,0,0-2Zm-37-40a1,1,0,0,1,1-1h20a1,1,0,0,1,1,1v4h-3v-3a1,1,0,0,0-2,0v3h-5v-3a1,1,0,0,0-2,0v3h-5v-3a1,1,0,0,0-2,0v3h-3Zm-4,7a1,1,0,0,1,1-1h28a1,1,0,0,1,1,1v5.41a44.4,44.4,0,0,0-14.92-4.41H27.3a44.4,44.4,0,0,0-14.92,4.41ZM23.59,51.52a4.43,4.43,0,0,1-2.73.85,4.42,4.42,0,0,1-2.72-.85,7,7,0,0,0-2.12-1C13,46.42,6.76,34.65,5.48,29.73,13.4,22.86,23.17,21,26.38,20.5V50.38s0,0,0,.07A6.51,6.51,0,0,0,23.59,51.52Zm13,0a4.79,4.79,0,0,1-5.45,0,6.51,6.51,0,0,0-2.78-1.08s0,0,0-.07V20.5c3.2.45,13,2.35,20.89,9.23C48,34.65,41.76,46.41,38.73,50.56A7,7,0,0,0,36.59,51.52Z"/><path class="cls-1" d="M46.87,54.75a6.78,6.78,0,0,1-4-1.2,4.42,4.42,0,0,0-5.06,0,7.15,7.15,0,0,1-7.94,0,4.41,4.41,0,0,0-5.06,0,6.76,6.76,0,0,1-4,1.2,6.76,6.76,0,0,1-4-1.2,4.07,4.07,0,0,0-2.53-.8,4.07,4.07,0,0,0-2.53.8,6.77,6.77,0,0,1-4,1.2,6.76,6.76,0,0,1-4-1.2,4.07,4.07,0,0,0-2.53-.8,1.38,1.38,0,0,1,0-2.75,6.76,6.76,0,0,1,4,1.2,4.07,4.07,0,0,0,2.53.8,4.07,4.07,0,0,0,2.53-.8,7.09,7.09,0,0,1,2.48-1.06C9.36,44.65,4,34.31,3,29.65a1.38,1.38,0,0,1,.43-1.29A38.37,38.37,0,0,1,10,23.62a1.28,1.28,0,0,1,0-.25v-6A3.38,3.38,0,0,1,13.38,14H14V10.38A3.38,3.38,0,0,1,17.38,7h20a3.38,3.38,0,0,1,3.38,3.38V14h.63a3.38,3.38,0,0,1,3.38,3.38v6a1.28,1.28,0,0,1,0,.25,38.37,38.37,0,0,1,6.57,4.73,1.38,1.38,0,0,1,.43,1.29c-.93,4.67-6.33,15-9.85,20.5a7.11,7.11,0,0,1,2.47,1.06,4.43,4.43,0,0,0,5.07,0,6.78,6.78,0,0,1,4-1.2,1.38,1.38,0,0,1,0,2.75,4.08,4.08,0,0,0-2.53.8A6.78,6.78,0,0,1,46.87,54.75ZM40.36,52a4.79,4.79,0,0,1,2.93.91,6.41,6.41,0,0,0,7.16,0A4.79,4.79,0,0,1,53.38,52a.63.63,0,0,0,0-1.25,6,6,0,0,0-3.58,1.09,5.17,5.17,0,0,1-5.85,0,6.12,6.12,0,0,0-2.74-1l-.6-.07.33-.51C44.32,45.05,50.06,34.15,51,29.5a.63.63,0,0,0-.19-.59,37.69,37.69,0,0,0-6.7-4.79l-.3-.17.15-.32a.61.61,0,0,0,.06-.26v-6a2.63,2.63,0,0,0-2.62-2.62H40V10.38a2.63,2.63,0,0,0-2.62-2.62h-20a2.63,2.63,0,0,0-2.62,2.63v4.38H13.38a2.63,2.63,0,0,0-2.62,2.63v6a.61.61,0,0,0,.06.26L11,24l-.3.17A37.69,37.69,0,0,0,4,28.91a.63.63,0,0,0-.19.59c.93,4.65,6.67,15.55,10.06,20.72l.33.51-.61.07a6.1,6.1,0,0,0-2.75,1,4.79,4.79,0,0,1-2.92.91A4.79,4.79,0,0,1,5,51.84a6,6,0,0,0-3.58-1.09.63.63,0,0,0,0,1.25,4.79,4.79,0,0,1,2.92.91A6,6,0,0,0,7.87,54a6,6,0,0,0,3.58-1.09A4.79,4.79,0,0,1,14.37,52a4.79,4.79,0,0,1,2.92.91A6,6,0,0,0,20.87,54a6,6,0,0,0,3.58-1.09,5.16,5.16,0,0,1,5.84,0,6.4,6.4,0,0,0,7.15,0A4.8,4.8,0,0,1,40.36,52Zm-6.5.75a4.79,4.79,0,0,1-2.92-.91,6.14,6.14,0,0,0-2.63-1l-.35,0,0-.46V20.07l.43.06c2.9.41,13,2.3,21.08,9.32l.18.15-.06.23C48.32,34.88,42,46.75,39,50.78l-.08.11-.13,0a6.59,6.59,0,0,0-2,.92h0A4.79,4.79,0,0,1,33.86,52.75Zm-5.11-2.62a7,7,0,0,1,2.59,1.08,4.41,4.41,0,0,0,5.06,0l.2.32-.2-.32a7.48,7.48,0,0,1,2.11-1c2.9-4,8.94-15.31,10.34-20.37C41.3,23.41,32,21.45,28.75,20.94Zm-7.88,2.63a4.79,4.79,0,0,1-2.92-.91,6.63,6.63,0,0,0-2-.92l-.13,0-.08-.11c-2.94-4-9.29-15.9-10.6-21l-.06-.23.18-.15c8.07-7,18.18-8.9,21.08-9.31l.43-.06,0,30.65-.34.09a6.14,6.14,0,0,0-2.65,1l-.2-.32.19.32A4.79,4.79,0,0,1,20.87,52.75Zm-4.62-2.52a7.51,7.51,0,0,1,2.09,1,4.07,4.07,0,0,0,2.53.8,4.07,4.07,0,0,0,2.53-.79l.2.32-.2-.32A7,7,0,0,1,26,50.12V20.94c-3.29.52-12.57,2.48-20.09,8.92C7.31,34.92,13.35,46.21,16.25,50.23ZM42.75,23.4l-.54-.27a44,44,0,0,0-14.79-4.37h-.19a44.65,44.65,0,0,0-14.7,4.38L12,23.4v-6A1.38,1.38,0,0,1,13.38,16h28a1.38,1.38,0,0,1,1.38,1.38ZM27.42,18h.05A44.8,44.8,0,0,1,42,22.19V17.38a.63.63,0,0,0-.62-.62h-28a.63.63,0,0,0-.62.63v4.81A44.8,44.8,0,0,1,27.27,18h.16Zm11.33-3.25H35V11.38a.63.63,0,0,0-1.25,0v3.38H28V11.38a.63.63,0,0,0-1.25,0v3.38H21V11.38a.63.63,0,0,0-1.25,0v3.38H16V10.38A1.38,1.38,0,0,1,17.38,9h20a1.38,1.38,0,0,1,1.38,1.38Zm-3-.75H38V10.38a.63.63,0,0,0-.62-.62h-20a.63.63,0,0,0-.62.63V14H19V11.38a1.38,1.38,0,0,1,2.75,0V14H26V11.38a1.38,1.38,0,0,1,2.75,0V14H33V11.38a1.38,1.38,0,0,1,2.75,0Z"/><path class="cls-1" d="M24.38,6.38a1,1,0,0,0,1-1v-2a1,1,0,0,1,1-1h2a1,1,0,0,1,1,1v2a1,1,0,0,0,2,0v-2a3,3,0,0,0-3-3h-2a3,3,0,0,0-3,3v2A1,1,0,0,0,24.38,6.38Z"/><path class="cls-1" d="M30.38,6.75A1.38,1.38,0,0,1,29,5.38v-2a.63.63,0,0,0-.62-.62h-2a.63.63,0,0,0-.62.63v2a1.38,1.38,0,0,1-2.75,0v-2A3.38,3.38,0,0,1,26.38,0h2a3.38,3.38,0,0,1,3.38,3.38v2A1.38,1.38,0,0,1,30.38,6.75ZM26.38,2h2a1.38,1.38,0,0,1,1.38,1.38v2a.63.63,0,0,0,1.25,0v-2A2.63,2.63,0,0,0,28.38.75h-2a2.63,2.63,0,0,0-2.62,2.63v2a.63.63,0,0,0,1.25,0v-2A1.38,1.38,0,0,1,26.38,2Z"/><path class="cls-1" d="M40.38,35.38a1,1,0,0,0,0-2,2,2,0,0,1-1-.18V30.55a2,2,0,0,1,1-.18,1,1,0,0,0,0-2c-3,0-3,1.92-3,2v3C37.38,33.46,37.41,35.38,40.38,35.38Z"/><path class="cls-1" d="M40.38,35.75C37,35.75,37,33.47,37,33.38v-3c0-.1,0-2.37,3.38-2.37a1.38,1.38,0,0,1,0,2.75,2.77,2.77,0,0,0-.62.06v2.13a2.77,2.77,0,0,0,.63.06,1.38,1.38,0,0,1,0,2.75Zm0-7c-2.59,0-2.62,1.56-2.62,1.63v3c0,.07,0,1.63,2.63,1.63a.63.63,0,0,0,0-1.25,2.32,2.32,0,0,1-1.2-.23L39,33.41V30.34l.18-.11a2.32,2.32,0,0,1,1.2-.23.63.63,0,0,0,0-1.25Z"/></g></g></svg>