<svg xmlns="http://www.w3.org/2000/svg" viewBox="0 0 29 25.39"><defs><style>.cls-1{fill:#1ea849;}</style></defs><title>Asset 3</title><g id="Layer_2" data-name="Layer 2"><g id="Layer_1-2" data-name="Layer 1"><path class="cls-1" d="M14.5,25.39a1.5,1.5,0,0,1-.77-.21l-.85-.5C8.38,22,0,17.05,0,8.72A8.72,8.72,0,0,1,14.5,2.2,8.72,8.72,0,0,1,29,8.72C29,17.05,20.62,22,16.12,24.67l-.85.5A1.5,1.5,0,0,1,14.5,25.39ZM8.72,3A5.73,5.73,0,0,0,3,8.72c0,6.62,7.42,11,11.41,13.37l.09.06.09-.06C18.58,19.73,26,15.34,26,8.72A5.72,5.72,0,0,0,15.7,5.3a1.55,1.55,0,0,1-2.4,0A5.75,5.75,0,0,0,8.72,3Z"/></g></g></svg>